<?xml version="1.0" standalone="no"?><!DOCTYPE svg PUBLIC "-//W3C//DTD SVG 1.1//EN" "http://www.w3.org/Graphics/SVG/1.1/DTD/svg11.dtd"><svg width="100%" height="100%" viewBox="0 0 1024 400" version="1.1" xmlns="http://www.w3.org/2000/svg" xmlns:xlink="http://www.w3.org/1999/xlink" xml:space="preserve" style="fill-rule:evenodd;clip-rule:evenodd;stroke-linejoin:round;stroke-miterlimit:1.41421;"><path d="M187.337,271.239l-31.971,0l0,-200.939l-0.023,-0.113c-0.359,-2.565 -0.091,-5.18 0.782,-7.618c0.434,-1.211 1.018,-2.377 1.729,-3.448c0.711,-1.072 1.557,-2.064 2.504,-2.934c0.946,-0.871 2.006,-1.632 3.133,-2.25c1.127,-0.619 2.381,-0.971 3.58,-1.435c0.139,-0.053 0.287,-0.076 0.431,-0.114c0.303,-0.08 0.606,-0.16 0.91,-0.238c1.662,-0.428 3.332,-0.828 5.008,-1.198c6.601,-1.458 13.302,-2.461 20.042,-2.991c3.466,-0.273 6.941,-0.416 10.418,-0.445c0.451,-0.002 0.902,-0.003 1.353,-0.002c3.442,0.014 6.882,0.141 10.315,0.396c6.5,0.482 12.967,1.404 19.343,2.754c8.604,1.823 17.042,4.428 25.179,7.767c7.959,3.266 15.63,7.235 22.895,11.844c10.004,6.345 19.235,13.905 27.419,22.47c8.002,8.374 14.998,17.705 20.785,27.738c3.336,5.784 6.271,11.798 8.78,17.986c5.406,13.33 8.846,27.462 10.155,41.787c0.847,9.279 0.799,18.638 -0.148,27.908c-0.944,9.244 -2.78,18.396 -5.467,27.291c-2.705,8.95 -6.27,17.638 -10.628,25.91c-4.01,7.612 -8.691,14.87 -13.971,21.663c-5.217,6.713 -11.021,12.97 -17.326,18.674c-5.939,5.373 -12.322,10.254 -19.065,14.574c-6.1,3.908 -12.492,7.356 -19.107,10.309c-6.628,2.96 -13.478,5.42 -20.471,7.366c-7.165,1.993 -14.479,3.446 -21.863,4.333c-7.505,0.9 -15.079,1.215 -22.632,0.936c-8.894,-0.329 -17.755,-1.48 -26.437,-3.429c-9.432,-2.118 -18.649,-5.178 -27.478,-9.113c-11.057,-4.927 -21.498,-11.229 -31.011,-18.715c-8.889,-6.995 -16.963,-15.023 -23.999,-23.879c-7.56,-9.516 -13.913,-19.982 -18.868,-31.079c-2.069,-4.635 -3.895,-9.379 -5.471,-14.204c-0.699,-2.142 -1.347,-4.299 -1.94,-6.478l-13.871,3.717l13.36,-65.286l44.213,49.859l-12.801,3.43c0.584,2.087 1.22,4.155 1.918,6.203c1.429,4.193 3.1,8.302 5.006,12.3c4.512,9.459 10.345,18.278 17.281,26.134c4.396,4.98 9.23,9.571 14.425,13.71c4.905,3.909 10.133,7.413 15.611,10.468c5.58,3.112 11.42,5.758 17.441,7.898c5.942,2.112 12.059,3.731 18.268,4.831c5.132,0.908 10.326,1.462 15.534,1.654c5.648,0.209 11.311,-0.008 16.927,-0.646c5.65,-0.643 11.25,-1.71 16.742,-3.182c6.412,-1.718 12.675,-3.987 18.693,-6.787c1.951,-0.909 8.947,-2.994 7.143,-6.216l-55.949,-75.217c-1.208,-1.984 -2.459,-3.279 -3.753,-3.883c-1.295,-0.604 -3.236,-0.906 -5.825,-0.906l-7.248,0l0,60.835ZM278.29,268.887c0,0 5.003,6.472 6.159,5.712c2.52,-1.658 6.776,-6.746 10.802,-12.023c4.289,-5.62 8.056,-11.638 11.239,-17.95c3.291,-6.528 5.957,-13.37 7.945,-20.405c1.846,-6.536 3.107,-13.238 3.755,-20c0.717,-7.469 0.684,-15.009 -0.092,-22.472c-0.778,-7.473 -2.301,-14.866 -4.52,-22.044c-2.292,-7.417 -5.338,-14.599 -9.091,-21.395c-3.871,-7.011 -8.491,-13.605 -13.754,-19.64c-6.166,-7.072 -13.212,-13.372 -20.919,-18.724c-8.057,-5.596 -16.832,-10.153 -26.045,-13.521c-7.111,-2.6 -14.48,-4.491 -21.965,-5.629c-6.904,-1.049 -13.904,-1.457 -20.882,-1.215c-4.547,0.158 -9.085,0.592 -13.585,1.308l0,108.158l5.954,0c2.157,0 3.861,-0.28 5.112,-0.841c1.252,-0.561 2.524,-1.704 3.819,-3.43l33.006,-40.772c1.38,-1.812 2.912,-3.193 4.595,-4.142c1.682,-0.949 3.861,-1.424 6.536,-1.424l29.252,0l-41.289,49.315c-2.934,3.883 -6.127,6.86 -9.579,8.931c1.813,1.294 3.43,2.805 4.854,4.53c1.424,1.726 2.783,3.581 4.077,5.566l44.616,62.107Z" style="fill:url(#_Linear1);stroke-width:3px;stroke:url(#_Linear2);"/><g><path d="M392.602,135.641l0,51.429l2.78,0c1.007,0 1.803,-0.131 2.387,-0.392c0.585,-0.262 1.179,-0.796 1.783,-1.602l15.411,-19.037c0.645,-0.846 1.36,-1.49 2.145,-1.934c0.786,-0.443 1.803,-0.664 3.052,-0.664l13.658,0l-19.278,23.025c-1.37,1.813 -2.861,3.203 -4.472,4.17c0.846,0.604 1.601,1.309 2.266,2.115c0.665,0.806 1.299,1.672 1.904,2.599l20.668,30.096l-13.477,0c-1.168,0 -2.175,-0.191 -3.021,-0.574c-0.846,-0.383 -1.551,-1.078 -2.116,-2.085l-15.833,-23.509c-0.564,-0.927 -1.149,-1.531 -1.753,-1.813c-0.604,-0.282 -1.511,-0.423 -2.719,-0.423l-3.385,0l0,28.404l-14.927,0l0,-89.805l14.927,0Z" style="fill:#0255ab;fill-rule:nonzero;"/><path d="M466.574,162.474c4.593,0 8.773,0.745 12.54,2.236c3.767,1.49 6.99,3.606 9.669,6.345c2.679,2.74 4.744,6.084 6.195,10.032c1.45,3.949 2.175,8.36 2.175,13.235c0,4.916 -0.725,9.348 -2.175,13.296c-1.451,3.948 -3.516,7.312 -6.195,10.092c-2.679,2.78 -5.902,4.916 -9.669,6.406c-3.767,1.491 -7.947,2.237 -12.54,2.237c-4.634,0 -8.844,-0.746 -12.631,-2.237c-3.787,-1.49 -7.021,-3.626 -9.7,-6.406c-2.679,-2.78 -4.754,-6.144 -6.224,-10.092c-1.471,-3.948 -2.206,-8.38 -2.206,-13.296c0,-4.875 0.735,-9.286 2.206,-13.235c1.47,-3.948 3.545,-7.292 6.224,-10.032c2.679,-2.739 5.913,-4.855 9.7,-6.345c3.787,-1.491 7.997,-2.236 12.631,-2.236ZM466.574,214.87c5.157,0 8.974,-1.732 11.452,-5.197c2.478,-3.465 3.717,-8.542 3.717,-15.23c0,-6.688 -1.239,-11.784 -3.717,-15.29c-2.478,-3.505 -6.295,-5.257 -11.452,-5.257c-5.238,0 -9.116,1.762 -11.634,5.288c-2.518,3.525 -3.777,8.612 -3.777,15.259c0,6.648 1.259,11.714 3.777,15.199c2.518,3.486 6.396,5.228 11.634,5.228Z" style="fill:#0255ab;fill-rule:nonzero;"/><path d="M508.575,225.446l0,-62.005l9.126,0c1.934,0 3.203,0.906 3.807,2.719l1.028,4.895c1.249,-1.289 2.568,-2.457 3.958,-3.505c1.39,-1.047 2.861,-1.954 4.412,-2.719c1.551,-0.766 3.213,-1.35 4.986,-1.753c1.772,-0.403 3.706,-0.604 5.801,-0.604c3.385,0 6.386,0.574 9.005,1.722c2.619,1.148 4.804,2.76 6.557,4.835c1.753,2.075 3.082,4.552 3.989,7.433c0.906,2.881 1.359,6.054 1.359,9.519l0,39.463l-14.927,0l0,-39.463c0,-3.788 -0.866,-6.719 -2.598,-8.794c-1.733,-2.075 -4.372,-3.112 -7.917,-3.112c-2.579,0 -4.996,0.584 -7.252,1.753c-2.257,1.168 -4.392,2.759 -6.406,4.774l0,44.842l-14.928,0Z" style="fill:#0255ab;fill-rule:nonzero;"/><path d="M596.567,226.413c-5.398,0 -9.538,-1.521 -12.419,-4.563c-2.88,-3.042 -4.321,-7.242 -4.321,-12.6l0,-34.629l-6.345,0c-0.806,0 -1.491,-0.262 -2.055,-0.786c-0.564,-0.524 -0.846,-1.309 -0.846,-2.357l0,-5.922l9.971,-1.632l3.143,-16.921c0.201,-0.806 0.584,-1.431 1.148,-1.874c0.564,-0.443 1.29,-0.665 2.176,-0.665l7.735,0l0,19.52l43.694,0l0,61.462l-14.927,0l0,-50.825l-28.767,0l0,33.601c0,1.934 0.474,3.445 1.421,4.533c0.946,1.088 2.246,1.632 3.898,1.632c0.926,0 1.702,-0.111 2.326,-0.333c0.625,-0.221 1.169,-0.453 1.632,-0.695c0.463,-0.242 0.876,-0.473 1.239,-0.695c0.363,-0.221 0.725,-0.332 1.088,-0.332c0.443,0 0.806,0.111 1.088,0.332c0.282,0.222 0.584,0.554 0.906,0.997l4.472,7.252c-2.175,1.813 -4.673,3.183 -7.494,4.11c-2.82,0.927 -5.741,1.39 -8.763,1.39ZM641.047,145.129c0,1.289 -0.262,2.508 -0.786,3.656c-0.523,1.149 -1.218,2.146 -2.085,2.992c-0.866,0.846 -1.893,1.521 -3.082,2.024c-1.188,0.504 -2.447,0.756 -3.777,0.756c-1.289,0 -2.498,-0.252 -3.626,-0.756c-1.128,-0.503 -2.115,-1.178 -2.961,-2.024c-0.846,-0.846 -1.521,-1.843 -2.025,-2.992c-0.503,-1.148 -0.755,-2.367 -0.755,-3.656c0,-1.33 0.252,-2.568 0.755,-3.717c0.504,-1.148 1.179,-2.155 2.025,-3.021c0.846,-0.867 1.833,-1.552 2.961,-2.055c1.128,-0.504 2.337,-0.756 3.626,-0.756c1.33,0 2.589,0.252 3.777,0.756c1.189,0.503 2.216,1.188 3.082,2.055c0.867,0.866 1.562,1.873 2.085,3.021c0.524,1.149 0.786,2.387 0.786,3.717Z" style="fill:#0255ab;fill-rule:nonzero;"/><path d="M653.678,225.446l0,-62.005l9.125,0c1.934,0 3.203,0.906 3.808,2.719l1.027,4.895c1.249,-1.289 2.568,-2.457 3.958,-3.505c1.39,-1.047 2.861,-1.954 4.412,-2.719c1.551,-0.766 3.213,-1.35 4.986,-1.753c1.773,-0.403 3.707,-0.604 5.802,-0.604c3.384,0 6.385,0.574 9.004,1.722c2.619,1.148 4.805,2.76 6.557,4.835c1.753,2.075 3.083,4.552 3.989,7.433c0.907,2.881 1.36,6.054 1.36,9.519l0,39.463l-14.927,0l0,-39.463c0,-3.788 -0.867,-6.719 -2.599,-8.794c-1.733,-2.075 -4.371,-3.112 -7.917,-3.112c-2.578,0 -4.996,0.584 -7.252,1.753c-2.256,1.168 -4.392,2.759 -6.406,4.774l0,44.842l-14.927,0Z" style="fill:#0255ab;fill-rule:nonzero;"/><path d="M736.17,163.441l0,39.403c0,3.787 0.877,6.718 2.629,8.793c1.753,2.075 4.382,3.112 7.887,3.112c2.578,0 4.996,-0.574 7.252,-1.722c2.256,-1.148 4.391,-2.73 6.406,-4.744l0,-44.842l14.927,0l0,62.005l-9.125,0c-1.975,0 -3.224,-0.907 -3.747,-2.72l-1.028,-4.955c-1.289,1.289 -2.618,2.468 -3.988,3.535c-1.37,1.068 -2.841,1.985 -4.412,2.75c-1.571,0.766 -3.243,1.35 -5.016,1.753c-1.773,0.403 -3.707,0.604 -5.802,0.604c-3.384,0 -6.376,-0.574 -8.974,-1.722c-2.599,-1.149 -4.785,-2.77 -6.557,-4.865c-1.773,-2.095 -3.113,-4.583 -4.019,-7.464c-0.907,-2.881 -1.36,-6.053 -1.36,-9.518l0,-39.403l14.927,0Z" style="fill:#0255ab;fill-rule:nonzero;"/><path d="M817.454,162.474c4.593,0 8.773,0.745 12.54,2.236c3.767,1.49 6.991,3.606 9.67,6.345c2.679,2.74 4.744,6.084 6.194,10.032c1.451,3.949 2.176,8.36 2.176,13.235c0,4.916 -0.725,9.348 -2.176,13.296c-1.45,3.948 -3.515,7.312 -6.194,10.092c-2.679,2.78 -5.903,4.916 -9.67,6.406c-3.767,1.491 -7.947,2.237 -12.54,2.237c-4.633,0 -8.843,-0.746 -12.631,-2.237c-3.787,-1.49 -7.02,-3.626 -9.699,-6.406c-2.679,-2.78 -4.754,-6.144 -6.225,-10.092c-1.47,-3.948 -2.206,-8.38 -2.206,-13.296c0,-4.875 0.736,-9.286 2.206,-13.235c1.471,-3.948 3.546,-7.292 6.225,-10.032c2.679,-2.739 5.912,-4.855 9.699,-6.345c3.788,-1.491 7.998,-2.236 12.631,-2.236ZM817.454,214.87c5.157,0 8.975,-1.732 11.452,-5.197c2.478,-3.465 3.717,-8.542 3.717,-15.23c0,-6.688 -1.239,-11.784 -3.717,-15.29c-2.477,-3.505 -6.295,-5.257 -11.452,-5.257c-5.237,0 -9.115,1.762 -11.633,5.288c-2.518,3.525 -3.777,8.612 -3.777,15.259c0,6.648 1.259,11.714 3.777,15.199c2.518,3.486 6.396,5.228 11.633,5.228Z" style="fill:#0255ab;fill-rule:nonzero;"/><path d="M873.779,163.441l0,39.403c0,3.787 0.876,6.718 2.629,8.793c1.752,2.075 4.381,3.112 7.886,3.112c2.579,0 4.996,-0.574 7.252,-1.722c2.257,-1.148 4.392,-2.73 6.406,-4.744l0,-44.842l14.928,0l0,62.005l-9.126,0c-1.974,0 -3.223,-0.907 -3.747,-2.72l-1.027,-4.955c-1.289,1.289 -2.619,2.468 -3.989,3.535c-1.37,1.068 -2.84,1.985 -4.411,2.75c-1.572,0.766 -3.244,1.35 -5.017,1.753c-1.772,0.403 -3.706,0.604 -5.801,0.604c-3.385,0 -6.376,-0.574 -8.975,-1.722c-2.598,-1.149 -4.784,-2.77 -6.557,-4.865c-1.773,-2.095 -3.112,-4.583 -4.019,-7.464c-0.906,-2.881 -1.359,-6.053 -1.359,-9.518l0,-39.403l14.927,0Z" style="fill:#0255ab;fill-rule:nonzero;"/><path d="M965.457,175.527c-0.403,0.645 -0.826,1.098 -1.269,1.36c-0.443,0.262 -1.007,0.393 -1.692,0.393c-0.725,0 -1.501,-0.201 -2.327,-0.604c-0.826,-0.403 -1.782,-0.856 -2.87,-1.36c-1.088,-0.504 -2.327,-0.957 -3.717,-1.36c-1.39,-0.403 -3.032,-0.604 -4.925,-0.604c-2.941,0 -5.248,0.624 -6.92,1.873c-1.672,1.249 -2.508,2.881 -2.508,4.895c0,1.33 0.433,2.448 1.299,3.355c0.867,0.906 2.015,1.702 3.445,2.387c1.43,0.685 3.052,1.299 4.865,1.843c1.813,0.544 3.656,1.138 5.53,1.783c1.873,0.644 3.716,1.38 5.529,2.206c1.813,0.825 3.435,1.873 4.865,3.142c1.431,1.269 2.579,2.79 3.445,4.563c0.866,1.773 1.299,3.908 1.299,6.406c0,2.981 -0.533,5.731 -1.601,8.249c-1.068,2.518 -2.649,4.694 -4.744,6.527c-2.095,1.833 -4.684,3.263 -7.766,4.291c-3.082,1.027 -6.638,1.541 -10.667,1.541c-2.135,0 -4.22,-0.191 -6.254,-0.574c-2.035,-0.383 -3.989,-0.917 -5.863,-1.602c-1.873,-0.685 -3.605,-1.49 -5.197,-2.417c-1.591,-0.927 -2.991,-1.934 -4.2,-3.022l3.445,-5.681c0.443,-0.684 0.967,-1.208 1.571,-1.571c0.604,-0.362 1.37,-0.544 2.296,-0.544c0.927,0 1.803,0.262 2.629,0.786c0.826,0.524 1.783,1.088 2.871,1.692c1.088,0.604 2.367,1.168 3.838,1.692c1.47,0.524 3.333,0.786 5.59,0.786c1.772,0 3.293,-0.212 4.562,-0.635c1.27,-0.423 2.317,-0.977 3.143,-1.662c0.826,-0.685 1.43,-1.48 1.813,-2.387c0.383,-0.906 0.574,-1.843 0.574,-2.81c0,-1.45 -0.433,-2.639 -1.299,-3.566c-0.866,-0.926 -2.015,-1.732 -3.445,-2.417c-1.43,-0.685 -3.062,-1.299 -4.895,-1.843c-1.833,-0.544 -3.707,-1.138 -5.62,-1.783c-1.914,-0.645 -3.788,-1.4 -5.621,-2.266c-1.833,-0.867 -3.465,-1.964 -4.895,-3.294c-1.43,-1.33 -2.578,-2.961 -3.445,-4.895c-0.866,-1.934 -1.299,-4.271 -1.299,-7.01c0,-2.539 0.504,-4.956 1.511,-7.253c1.007,-2.296 2.488,-4.3 4.442,-6.013c1.954,-1.712 4.391,-3.082 7.312,-4.109c2.921,-1.028 6.295,-1.541 10.123,-1.541c4.271,0 8.159,0.705 11.664,2.115c3.505,1.41 6.426,3.263 8.763,5.56l-3.385,5.378Z" style="fill:#0255ab;fill-rule:nonzero;"/></g><defs><linearGradient id="_Linear1" x1="0" y1="0" x2="1" y2="0" gradientUnits="userSpaceOnUse" gradientTransform="matrix(300.353,0,0,291.805,50.3514,193.416)"><stop offset="0%" style="stop-color:#00735c;stop-opacity:1"/><stop offset="100%" style="stop-color:#0254ad;stop-opacity:1"/></linearGradient><linearGradient id="_Linear2" x1="0" y1="0" x2="1" y2="0" gradientUnits="userSpaceOnUse" gradientTransform="matrix(300.353,0,0,291.805,50.3514,193.416)"><stop offset="0%" style="stop-color:#00735c;stop-opacity:1"/><stop offset="100%" style="stop-color:#0254ad;stop-opacity:1"/></linearGradient></defs></svg>